<svg width="111" height="111" viewBox="0 0 111 111" fill="none" xmlns="http://www.w3.org/2000/svg">
<rect width="111" height="111" rx="20" fill="#5A65BA"/>
<path d="M55.5 28.1458C50.9802 25.6797 44.6299 21.8333 38.6667 21.8333C29.8292 21.8333 21.8333 27.081 21.8333 42.8749C21.8333 63.4915 26.2773 78.267 33.0738 87.2181C35.4852 90.3996 41.3642 89.4107 43.8766 86.225C45.5515 84.0998 47.3232 80.1692 49.1875 74.4374C50.4163 71.1928 52.9413 68.1081 55.5 68.1249C58.0334 68.1249 60.5921 71.2265 61.8125 74.4374C63.6768 80.1692 65.4485 84.0955 67.1234 86.2208C69.6358 89.4149 75.5401 90.3996 77.9262 87.2181C84.7227 78.267 89.1667 63.4958 89.1667 42.8749C89.1667 27.1358 81.1372 21.8333 72.3333 21.8333C66.3449 21.8333 60.045 25.667 55.5 28.1458ZM55.5 28.1458L68.125 34.4583" stroke="white" stroke-width="8.41667" stroke-linecap="round" stroke-linejoin="round"/>
</svg>
