<svg width="154" height="77" viewBox="0 0 154 77" fill="none" xmlns="http://www.w3.org/2000/svg">
<path d="M2.35151 37V9.5657H11.4244C13.3187 9.5657 15.0954 9.92496 16.7545 10.6435C18.4136 11.3489 19.8703 12.3353 21.1244 13.6025C22.3786 14.8566 23.3583 16.3132 24.0638 17.9724C24.7823 19.6184 25.1416 21.3886 25.1416 23.2828C25.1416 25.1771 24.7823 26.9538 24.0638 28.6129C23.3583 30.259 22.3786 31.7156 21.1244 32.9828C19.8703 34.237 18.4136 35.2233 16.7545 35.9418C15.0954 36.6473 13.3187 37 11.4244 37H2.35151ZM6.42747 32.924H11.4244C12.757 32.924 13.998 32.6758 15.1477 32.1794C16.3103 31.683 17.3359 30.9906 18.2242 30.1022C19.1256 29.2139 19.8246 28.1884 20.321 27.0257C20.8174 25.863 21.0656 24.6154 21.0656 23.2828C21.0656 21.9503 20.8174 20.7027 20.321 19.54C19.8246 18.3773 19.1256 17.3518 18.2242 16.4635C17.3359 15.5751 16.3103 14.8827 15.1477 14.3863C13.998 13.8899 12.757 13.6417 11.4244 13.6417H6.42747V32.924ZM36.8082 37.5095C35.0054 37.5095 33.3593 37.0457 31.87 36.1182C30.3938 35.1906 29.2115 33.9496 28.3232 32.395C27.4479 30.8273 27.0102 29.0963 27.0102 27.202C27.0102 25.765 27.265 24.4259 27.7745 23.1849C28.284 21.9307 28.9829 20.8334 29.8712 19.8928C30.7727 18.9391 31.8178 18.1944 33.0066 17.6588C34.1954 17.1232 35.4626 16.8554 36.8082 16.8554C38.3106 16.8554 39.6888 17.1689 40.9429 17.796C42.1971 18.41 43.2683 19.2657 44.1567 20.3631C45.045 21.4474 45.6982 22.7015 46.1163 24.1255C46.5343 25.5364 46.6584 27.0387 46.4886 28.6325H31.3801C31.55 29.534 31.8766 30.3504 32.3599 31.082C32.8564 31.8005 33.4834 32.3688 34.2411 32.7869C35.0119 33.2049 35.8676 33.4205 36.8082 33.4335C37.8011 33.4335 38.7025 33.1853 39.5124 32.6889C40.3355 32.1925 41.0083 31.5066 41.5308 30.6313L45.6656 31.5915C44.8817 33.329 43.6994 34.753 42.1187 35.8634C40.538 36.9608 38.7678 37.5095 36.8082 37.5095ZM31.243 25.5168H42.3734C42.2428 24.5762 41.9097 23.727 41.3741 22.9693C40.8515 22.1985 40.1918 21.5911 39.3949 21.1469C38.611 20.6897 37.7488 20.461 36.8082 20.461C35.8807 20.461 35.0184 20.6831 34.2215 21.1273C33.4377 21.5715 32.7845 22.1789 32.2619 22.9497C31.7524 23.7074 31.4128 24.5631 31.243 25.5168ZM67.3702 24.7134V37H63.2942V25.7127C63.2942 24.8375 63.0787 24.0406 62.6476 23.322C62.2295 22.6035 61.6612 22.0352 60.9427 21.6172C60.2373 21.1861 59.4404 20.9705 58.552 20.9705C57.6898 20.9705 56.8994 21.1861 56.1809 21.6172C55.4624 22.0352 54.8876 22.6035 54.4565 23.322C54.0254 24.0406 53.8098 24.8375 53.8098 25.7127V37H49.7339V17.4041H53.8098V19.4812C54.4891 18.6713 55.3252 18.0311 56.3181 17.5608C57.311 17.0905 58.3822 16.8554 59.5318 16.8554C60.9819 16.8554 62.3014 17.2081 63.4902 17.9136C64.679 18.619 65.6196 19.5662 66.312 20.755C67.0175 21.9438 67.3702 23.2633 67.3702 24.7134ZM81.6284 21.48H77.5132L77.4936 37H73.4177L73.4373 21.48H70.3215V17.4041H73.4373L73.4177 11.2509H77.4936L77.5132 17.4041H81.6284V21.48ZM84.8687 17.4041H88.9447V37H84.8687V17.4041ZM86.9459 14.5627C86.3188 14.5627 85.7963 14.3602 85.3782 13.9552C84.9602 13.5502 84.7512 13.0407 84.7512 12.4267C84.7512 11.8258 84.9602 11.3228 85.3782 10.9178C85.7963 10.4998 86.3123 10.2907 86.9263 10.2907C87.5273 10.2907 88.0368 10.4998 88.4548 10.9178C88.8728 11.3228 89.0819 11.8258 89.0819 12.4267C89.0819 13.0407 88.8728 13.5502 88.4548 13.9552C88.0498 14.3602 87.5469 14.5627 86.9459 14.5627ZM99.2442 37.3723C98.2121 37.307 97.2062 37.098 96.2264 36.7453C95.2466 36.3925 94.3844 35.9157 93.6398 35.3147C92.9082 34.7007 92.3595 33.9822 91.9937 33.1592L95.4622 31.6699C95.632 32.0226 95.926 32.3688 96.344 32.7085C96.7751 33.0482 97.2781 33.329 97.8529 33.5511C98.4277 33.7601 99.0286 33.8647 99.6557 33.8647C100.27 33.8647 100.838 33.7797 101.361 33.6099C101.896 33.427 102.334 33.1527 102.673 32.7869C103.013 32.4211 103.183 31.9834 103.183 31.4739C103.183 30.8991 102.987 30.455 102.595 30.1414C102.216 29.8148 101.739 29.5666 101.165 29.3968C100.59 29.2269 100.015 29.0636 99.4402 28.9069C98.1599 28.6195 96.9841 28.2276 95.9129 27.7311C94.8547 27.2216 94.0121 26.575 93.385 25.7911C92.7579 24.9942 92.4444 24.021 92.4444 22.8713C92.4444 21.6172 92.7841 20.5329 93.4634 19.6184C94.1427 18.6909 95.0311 17.9789 96.1284 17.4825C97.2389 16.986 98.4212 16.7378 99.6753 16.7378C101.243 16.7378 102.68 17.0709 103.986 17.7372C105.293 18.4035 106.292 19.3179 106.985 20.4806L103.751 22.401C103.555 22.0091 103.261 21.6564 102.869 21.3429C102.478 21.0293 102.033 20.7811 101.537 20.5982C101.04 20.4022 100.524 20.2912 99.9888 20.2651C99.3226 20.2389 98.702 20.3173 98.1272 20.5002C97.5655 20.6701 97.1148 20.9444 96.7751 21.3233C96.4354 21.7021 96.2656 22.1855 96.2656 22.7734C96.2656 23.3482 96.4681 23.7793 96.8731 24.0667C97.2781 24.341 97.7876 24.5631 98.4016 24.7329C99.0286 24.9028 99.6688 25.0922 100.322 25.3012C101.485 25.667 102.576 26.1177 103.594 26.6533C104.613 27.1759 105.437 27.8226 106.064 28.5933C106.691 29.3641 106.991 30.3047 106.965 31.4152C106.965 32.6432 106.593 33.7209 105.848 34.6485C105.116 35.576 104.163 36.2815 102.987 36.7648C101.811 37.2482 100.564 37.4507 99.2442 37.3723ZM120.667 21.48H116.552L116.532 37H112.456L112.476 21.48H109.36V17.4041H112.476L112.456 11.2509H116.532L116.552 17.4041H120.667V21.48ZM124.763 37V9.5657H128.839V37H124.763ZM151.763 24.7134V37H147.687V25.7127C147.687 24.8375 147.471 24.0406 147.04 23.322C146.622 22.6035 146.054 22.0352 145.335 21.6172C144.63 21.1861 143.833 20.9705 142.945 20.9705C142.082 20.9705 141.292 21.1861 140.574 21.6172C139.855 22.0352 139.28 22.6035 138.849 23.322C138.418 24.0406 138.202 24.8375 138.202 25.7127V37H134.126V17.4041H138.202V19.4812C138.882 18.6713 139.718 18.0311 140.711 17.5608C141.704 17.0905 142.775 16.8554 143.924 16.8554C145.375 16.8554 146.694 17.2081 147.883 17.9136C149.072 18.619 150.012 19.5662 150.705 20.755C151.41 21.9438 151.763 23.2633 151.763 24.7134Z" fill="white"/>
<path d="M32.6597 47.9012L39.7272 55.1669C51.3603 67.1261 70.5695 67.1261 82.2026 55.1669L89.2701 47.9012" stroke="white" stroke-width="6.34884" stroke-linecap="round"/>
</svg>
