<svg width="110" height="55" viewBox="0 0 110 55" fill="none" xmlns="http://www.w3.org/2000/svg">
<path d="M1.67324 26V6.47887H8.12915C9.47704 6.47887 10.7413 6.73451 11.9218 7.24577C13.1024 7.74775 14.1389 8.44958 15.0313 9.35127C15.9237 10.2437 16.6208 11.2801 17.1228 12.4607C17.6341 13.632 17.8897 14.8915 17.8897 16.2394C17.8897 17.5873 17.6341 18.8515 17.1228 20.0321C16.6208 21.2034 15.9237 22.2399 15.0313 23.1415C14.1389 24.0339 13.1024 24.7358 11.9218 25.247C10.7413 25.749 9.47704 26 8.12915 26H1.67324ZM4.57352 23.0997H8.12915C9.07732 23.0997 9.96042 22.9231 10.7785 22.5699C11.6058 22.2166 12.3355 21.7239 12.9676 21.0918C13.609 20.4597 14.1063 19.73 14.4596 18.9027C14.8128 18.0754 14.9894 17.1876 14.9894 16.2394C14.9894 15.2913 14.8128 14.4035 14.4596 13.5762C14.1063 12.7489 13.609 12.0192 12.9676 11.387C12.3355 10.7549 11.6058 10.2623 10.7785 9.90901C9.96042 9.55577 9.07732 9.37915 8.12915 9.37915H4.57352V23.0997ZM26.1912 26.3625C24.9084 26.3625 23.7371 26.0325 22.6774 25.3725C21.627 24.7125 20.7857 23.8294 20.1536 22.7232C19.5308 21.6077 19.2194 20.3761 19.2194 19.0282C19.2194 18.0056 19.4006 17.0528 19.7632 16.1697C20.1257 15.2773 20.623 14.4965 21.2552 13.8272C21.8966 13.1486 22.6402 12.6187 23.4861 12.2376C24.3321 11.8565 25.2337 11.6659 26.1912 11.6659C27.2602 11.6659 28.2409 11.889 29.1333 12.3352C30.0257 12.7721 30.788 13.381 31.4201 14.1618C32.0522 14.9334 32.517 15.8258 32.8144 16.839C33.1119 17.843 33.2002 18.912 33.0794 20.0461H22.3288C22.4497 20.6875 22.6821 21.2685 23.026 21.789C23.3792 22.3003 23.8254 22.7046 24.3646 23.0021C24.913 23.2996 25.5219 23.453 26.1912 23.4623C26.8977 23.4623 27.5391 23.2856 28.1154 22.9324C28.7011 22.5792 29.1798 22.0911 29.5516 21.4683L32.4937 22.1515C31.936 23.3879 31.0947 24.4011 29.9699 25.1913C28.8452 25.9721 27.5856 26.3625 26.1912 26.3625ZM22.2312 17.829H30.1512C30.0583 17.1597 29.8212 16.5555 29.4401 16.0163C29.0683 15.4679 28.5988 15.0356 28.0318 14.7196C27.474 14.3942 26.8605 14.2315 26.1912 14.2315C25.5312 14.2315 24.9177 14.3896 24.3506 14.7056C23.7929 15.0217 23.3281 15.4539 22.9563 16.0024C22.5937 16.5415 22.3521 17.1504 22.2312 17.829ZM47.9379 17.2573V26H45.0376V17.9685C45.0376 17.3456 44.8842 16.7786 44.5775 16.2673C44.28 15.7561 43.8756 15.3517 43.3644 15.0542C42.8624 14.7475 42.2953 14.5941 41.6632 14.5941C41.0497 14.5941 40.4873 14.7475 39.976 15.0542C39.4648 15.3517 39.0558 15.7561 38.749 16.2673C38.4422 16.7786 38.2889 17.3456 38.2889 17.9685V26H35.3886V12.0563H38.2889V13.5344C38.7722 12.958 39.3672 12.5025 40.0736 12.1679C40.7801 11.8332 41.5424 11.6659 42.3604 11.6659C43.3922 11.6659 44.3311 11.9169 45.177 12.4189C46.0229 12.9208 46.6922 13.5948 47.1849 14.4407C47.6869 15.2866 47.9379 16.2255 47.9379 17.2573ZM58.0834 14.9566H55.1552L55.1413 26H52.241L52.255 14.9566H50.0379V12.0563H52.255L52.241 7.67803H55.1413L55.1552 12.0563H58.0834V14.9566ZM60.3891 12.0563H63.2894V26H60.3891V12.0563ZM61.8672 10.0345C61.421 10.0345 61.0491 9.89042 60.7517 9.60225C60.4542 9.31408 60.3055 8.95155 60.3055 8.51465C60.3055 8.08704 60.4542 7.72915 60.7517 7.44099C61.0491 7.14352 61.4163 6.99479 61.8532 6.99479C62.2808 6.99479 62.6434 7.14352 62.9408 7.44099C63.2383 7.72915 63.387 8.08704 63.387 8.51465C63.387 8.95155 63.2383 9.31408 62.9408 9.60225C62.6526 9.89042 62.2948 10.0345 61.8672 10.0345ZM70.6181 26.2649C69.8837 26.2185 69.168 26.0697 68.4708 25.8187C67.7736 25.5677 67.1601 25.2285 66.6302 24.8008C66.1097 24.3639 65.7192 23.8527 65.459 23.267L67.927 22.2073C68.0478 22.4583 68.257 22.7046 68.5544 22.9463C68.8612 23.188 69.2191 23.3879 69.6281 23.5459C70.0371 23.6946 70.4647 23.769 70.9109 23.769C71.3478 23.769 71.7522 23.7086 72.124 23.5877C72.5052 23.4576 72.8166 23.2624 73.0583 23.0021C73.2999 22.7418 73.4208 22.4304 73.4208 22.0679C73.4208 21.6589 73.2814 21.3428 73.0025 21.1197C72.7329 20.8873 72.3936 20.7107 71.9846 20.5899C71.5756 20.469 71.1666 20.3528 70.7575 20.2413C69.8466 20.0368 69.0099 19.7579 68.2477 19.4046C67.4947 19.0421 66.8952 18.582 66.449 18.0242C66.0028 17.4572 65.7797 16.7646 65.7797 15.9466C65.7797 15.0542 66.0213 14.2827 66.5047 13.632C66.9881 12.972 67.6202 12.4654 68.4011 12.1121C69.1912 11.7589 70.0325 11.5823 70.9249 11.5823C72.0404 11.5823 73.0629 11.8193 73.9925 12.2934C74.9221 12.7675 75.6332 13.4182 76.1259 14.2455L73.8252 15.612C73.6857 15.3331 73.4766 15.0821 73.1977 14.859C72.9188 14.6359 72.6028 14.4593 72.2495 14.3292C71.8963 14.1897 71.5291 14.1107 71.148 14.0921C70.6739 14.0735 70.2323 14.1293 69.8233 14.2594C69.4236 14.3803 69.1029 14.5755 68.8612 14.8451C68.6195 15.1146 68.4987 15.4586 68.4987 15.8769C68.4987 16.2859 68.6428 16.5927 68.9309 16.7972C69.2191 16.9924 69.5816 17.1504 70.0185 17.2713C70.4647 17.3921 70.9202 17.5269 71.385 17.6756C72.2123 17.9359 72.9885 18.2566 73.7136 18.6377C74.4387 19.0096 75.0243 19.4697 75.4705 20.0182C75.9167 20.5666 76.1305 21.2359 76.1119 22.0261C76.1119 22.8999 75.847 23.6668 75.3171 24.3268C74.7966 24.9868 74.118 25.4887 73.2813 25.8327C72.4447 26.1766 71.557 26.3207 70.6181 26.2649ZM85.8618 14.9566H82.9336L82.9197 26H80.0194L80.0334 14.9566H77.8163V12.0563H80.0334L80.0194 7.67803H82.9197L82.9336 12.0563H85.8618V14.9566Z" fill="#414BA0"/>
<path d="M88.7765 26V6.47887H91.6767V26H88.7765ZM107.988 17.2573V26H105.088V17.9685C105.088 17.3456 104.935 16.7786 104.628 16.2673C104.33 15.7561 103.926 15.3517 103.415 15.0542C102.913 14.7475 102.346 14.5941 101.714 14.5941C101.1 14.5941 100.538 14.7475 100.026 15.0542C99.5151 15.3517 99.1061 15.7561 98.7993 16.2673C98.4926 16.7786 98.3392 17.3456 98.3392 17.9685V26H95.4389V12.0563H98.3392V13.5344C98.8226 12.958 99.4175 12.5025 100.124 12.1679C100.83 11.8332 101.593 11.6659 102.411 11.6659C103.443 11.6659 104.381 11.9169 105.227 12.4189C106.073 12.9208 106.743 13.5948 107.235 14.4407C107.737 15.2866 107.988 16.2255 107.988 17.2573Z" fill="black"/>
<path d="M23.2395 34.0845L28.2685 39.2545C36.5461 47.7642 50.2146 47.7642 58.4922 39.2545L63.5212 34.0845" stroke="#414BA0" stroke-width="4.51757" stroke-linecap="round"/>
</svg>
